<?xml version="1.0" encoding="UTF-8" standalone="no"?>
<!-- Created with Inkscape (http://www.inkscape.org/) -->

<svg
   xmlns:osb="http://www.openswatchbook.org/uri/2009/osb"
   xmlns:dc="http://purl.org/dc/elements/1.1/"
   xmlns:cc="http://creativecommons.org/ns#"
   xmlns:rdf="http://www.w3.org/1999/02/22-rdf-syntax-ns#"
   xmlns:svg="http://www.w3.org/2000/svg"
   xmlns="http://www.w3.org/2000/svg"
   xmlns:sodipodi="http://sodipodi.sourceforge.net/DTD/sodipodi-0.dtd"
   xmlns:inkscape="http://www.inkscape.org/namespaces/inkscape"
   width="800"
   height="480"
   id="svg2"
   version="1.1"
   inkscape:version="0.48.2 r9819"
   sodipodi:docname="concept.svg"
   enable-background="new">
  <defs
     id="defs4">
    <linearGradient
       id="linearGradient5355"
       osb:paint="solid">
      <stop
         style="stop-color:#777777;stop-opacity:1;"
         offset="0"
         id="stop5357" />
    </linearGradient>
  </defs>
  <sodipodi:namedview
     id="base"
     pagecolor="#000000"
     bordercolor="#757575"
     borderopacity="0.45882353"
     inkscape:pageopacity="1"
     inkscape:pageshadow="2"
     inkscape:zoom="1"
     inkscape:cx="377.08491"
     inkscape:cy="240.77944"
     inkscape:document-units="px"
     inkscape:current-layer="layer12"
     showgrid="false"
     inkscape:window-width="1600"
     inkscape:window-height="844"
     inkscape:window-x="-4"
     inkscape:window-y="-4"
     inkscape:window-maximized="1"
     inkscape:showpageshadow="false"
     showborder="true"
     borderlayer="true"
     inkscape:snap-object-midpoints="true">
    <inkscape:grid
       type="xygrid"
       id="grid3046"
       empspacing="4"
       visible="true"
       enabled="true"
       snapvisiblegridlinesonly="true"
       spacingx="10px"
       spacingy="10px"
       originy="-0.2px" />
    <inkscape:grid
       type="xygrid"
       id="grid3170"
       empspacing="4"
       visible="false"
       enabled="false"
       snapvisiblegridlinesonly="true"
       spacingx="40px"
       spacingy="40px" />
  </sodipodi:namedview>
  <metadata
     id="metadata7">
    <rdf:RDF>
      <cc:Work
         rdf:about="">
        <dc:format>image/svg+xml</dc:format>
        <dc:type
           rdf:resource="http://purl.org/dc/dcmitype/StillImage" />
        <dc:title />
      </cc:Work>
    </rdf:RDF>
  </metadata>
  <g
     inkscape:groupmode="layer"
     id="layer4"
     inkscape:label="bg"
     style="display:inline"
     sodipodi:insensitive="true">
    <rect
       style="fill:#111111;fill-opacity:1;fill-rule:nonzero;stroke:none"
       id="rect5372"
       width="800"
       height="480"
       x="0"
       y="0.2"
       ry="2.1538463" />
  </g>
  <g
     inkscape:groupmode="layer"
     id="layer10"
     inkscape:label="score"
     style="display:none"
     sodipodi:insensitive="true">
    <rect
       style="fill:#ffc12d;fill-opacity:1;fill-rule:nonzero;stroke:none;display:inline"
       id="rect5372-2"
       width="800"
       height="480"
       x="0"
       y="0.2"
       ry="2.1538463" />
    <path
       sodipodi:type="arc"
       style="fill:#000000;fill-opacity:1;fill-rule:nonzero;stroke:none"
       id="path5411-7"
       sodipodi:cx="370"
       sodipodi:cy="450.20001"
       sodipodi:rx="10"
       sodipodi:ry="10"
       d="m 380,450.20001 a 10,10 0 1 1 -20,0 10,10 0 1 1 20,0 z"
       transform="translate(-50,-290.00001)" />
    <path
       transform="translate(-50,-250.00001)"
       d="m 380,450.20001 a 10,10 0 1 1 -20,0 10,10 0 1 1 20,0 z"
       sodipodi:ry="10"
       sodipodi:rx="10"
       sodipodi:cy="450.20001"
       sodipodi:cx="370"
       id="path6666"
       style="fill:#000000;fill-opacity:1;fill-rule:nonzero;stroke:none"
       sodipodi:type="arc" />
    <path
       sodipodi:type="arc"
       style="fill:#000000;fill-opacity:1;fill-rule:nonzero;stroke:none"
       id="path6668"
       sodipodi:cx="370"
       sodipodi:cy="450.20001"
       sodipodi:rx="10"
       sodipodi:ry="10"
       d="m 380,450.20001 a 10,10 0 1 1 -20,0 10,10 0 1 1 20,0 z"
       transform="translate(-50,-210.00001)" />
    <path
       transform="translate(-50,-170.00001)"
       d="m 380,450.20001 a 10,10 0 1 1 -20,0 10,10 0 1 1 20,0 z"
       sodipodi:ry="10"
       sodipodi:rx="10"
       sodipodi:cy="450.20001"
       sodipodi:cx="370"
       id="path6670"
       style="fill:#000000;fill-opacity:1;fill-rule:nonzero;stroke:none"
       sodipodi:type="arc" />
    <path
       style="fill:#000000;fill-opacity:1;fill-rule:nonzero;stroke:none"
       d="m 319.53125,310.21875 c -2.39915,0.10466 -4.76067,1.07318 -6.59375,2.90625 -3.2588,3.2588 -3.77367,8.18183 -1.59375,12 l 1.46875,-1.46875 C 312.30501,322.60542 312,321.43265 312,320.1875 c 0,-4.41828 3.58172,-8 8,-8 1.24264,0 2.41953,0.30693 3.46875,0.8125 l 1.46875,-1.46875 c -1.67045,-0.95371 -3.54025,-1.3939 -5.40625,-1.3125 z m 9.15625,5 -1.5,1.5 c 0.5111,1.05383 0.8125,2.21889 0.8125,3.46875 0,4.41828 -3.58172,8 -8,8 -1.25304,0 -2.44415,-0.2677 -3.5,-0.78125 l -1.46875,1.46875 c 3.82251,2.20144 8.76326,1.64298 12.03125,-1.625 3.26798,-3.26799 3.82644,-8.20874 1.625,-12.03125 z"
       id="path6672"
       inkscape:connector-curvature="0" />
    <path
       transform="translate(110,-210.00001)"
       d="m 380,450.20001 a 10,10 0 1 1 -20,0 10,10 0 1 1 20,0 z"
       sodipodi:ry="10"
       sodipodi:rx="10"
       sodipodi:cy="450.20001"
       sodipodi:cx="370"
       id="path6678"
       style="fill:#000000;fill-opacity:1;fill-rule:nonzero;stroke:none"
       sodipodi:type="arc" />
    <path
       sodipodi:type="arc"
       style="fill:#000000;fill-opacity:1;fill-rule:nonzero;stroke:none"
       id="path6680"
       sodipodi:cx="370"
       sodipodi:cy="450.20001"
       sodipodi:rx="10"
       sodipodi:ry="10"
       d="m 380,450.20001 a 10,10 0 1 1 -20,0 10,10 0 1 1 20,0 z"
       transform="translate(110,-170.00001)" />
    <path
       transform="translate(110,-130.00001)"
       d="m 380,450.20001 a 10,10 0 1 1 -20,0 10,10 0 1 1 20,0 z"
       sodipodi:ry="10"
       sodipodi:rx="10"
       sodipodi:cy="450.20001"
       sodipodi:cx="370"
       id="path6682"
       style="fill:#000000;fill-opacity:1;fill-rule:nonzero;stroke:none"
       sodipodi:type="arc" />
    <path
       inkscape:connector-curvature="0"
       id="path6734"
       d="m 479.51519,150.21654 c -2.39915,0.10466 -4.76067,1.07318 -6.59375,2.90625 -3.2588,3.2588 -3.77367,8.18183 -1.59375,12 l 1.46875,-1.46875 c -0.50749,-1.05083 -0.8125,-2.2236 -0.8125,-3.46875 0,-4.41828 3.58172,-8 8,-8 1.24264,0 2.41953,0.30693 3.46875,0.8125 l 1.46875,-1.46875 c -1.67045,-0.95371 -3.54025,-1.3939 -5.40625,-1.3125 z m 9.15625,5 -1.5,1.5 c 0.5111,1.05383 0.8125,2.21889 0.8125,3.46875 0,4.41828 -3.58172,8 -8,8 -1.25304,0 -2.44415,-0.2677 -3.5,-0.78125 l -1.46875,1.46875 c 3.82251,2.20144 8.76326,1.64298 12.03125,-1.625 3.26798,-3.26799 3.82644,-8.20874 1.625,-12.03125 z"
       style="fill:#000000;fill-opacity:1;fill-rule:nonzero;stroke:none" />
    <path
       style="fill:#000000;fill-opacity:1;fill-rule:nonzero;stroke:none"
       d="m 479.51519,190.21654 c -2.39915,0.10466 -4.76067,1.07318 -6.59375,2.90625 -3.2588,3.2588 -3.77367,8.18183 -1.59375,12 l 1.46875,-1.46875 c -0.50749,-1.05083 -0.8125,-2.2236 -0.8125,-3.46875 0,-4.41828 3.58172,-8 8,-8 1.24264,0 2.41953,0.30693 3.46875,0.8125 l 1.46875,-1.46875 c -1.67045,-0.95371 -3.54025,-1.3939 -5.40625,-1.3125 z m 9.15625,5 -1.5,1.5 c 0.5111,1.05383 0.8125,2.21889 0.8125,3.46875 0,4.41828 -3.58172,8 -8,8 -1.25304,0 -2.44415,-0.2677 -3.5,-0.78125 l -1.46875,1.46875 c 3.82251,2.20144 8.76326,1.64298 12.03125,-1.625 3.26798,-3.26799 3.82644,-8.20874 1.625,-12.03125 z"
       id="path6736"
       inkscape:connector-curvature="0" />
  </g>
  <g
     inkscape:groupmode="layer"
     id="layer8"
     inkscape:label="obstacles"
     sodipodi:insensitive="true">
    <rect
       ry="0"
       y="221.92918"
       x="318.56778"
       height="80"
       width="80"
       id="rect6584"
       style="fill:#ffffff;fill-opacity:1;fill-rule:nonzero;stroke:none"
       transform="matrix(0.96592583,-0.25881905,0.25881905,0.96592583,0,0)" />
    <rect
       style="fill:#ffffff;fill-opacity:1;fill-rule:nonzero;stroke:none"
       id="rect6586"
       width="80"
       height="80"
       x="477.78992"
       y="192.38882"
       ry="0"
       transform="matrix(0.96592583,0.25881905,-0.25881905,0.96592583,0,0)" />
    <rect
       ry="0"
       y="-214.8268"
       x="263.20889"
       height="80"
       width="80"
       id="rect6588"
       style="fill:#ffffff;fill-opacity:1;fill-rule:nonzero;stroke:none"
       transform="matrix(0.8660254,0.5,-0.5,0.8660254,0,0)" />
    <rect
       transform="matrix(0.64531249,0.76391871,-0.76391871,0.64531249,0,0)"
       ry="0"
       y="66.585777"
       x="689.12146"
       height="80"
       width="80"
       id="rect6590"
       style="fill:#ffffff;fill-opacity:1;fill-rule:nonzero;stroke:none" />
  </g>
  <g
     inkscape:groupmode="layer"
     id="layer7"
     inkscape:label="ball"
     style="display:inline"
     sodipodi:insensitive="true">
    <rect
       y="565.14453"
       x="317.46625"
       height="4"
       width="4.1109128"
       id="rect6181"
       style="fill:#ffc12d;fill-opacity:1;fill-rule:nonzero;stroke:none" />
    <rect
       style="fill:#ffc12d;fill-opacity:1;fill-rule:nonzero;stroke:none"
       id="rect5413"
       width="8"
       height="4"
       x="286"
       y="563.20001" />
    <rect
       y="563.20001"
       x="286"
       height="4"
       width="8"
       id="rect5924"
       style="fill:#ffc12d;fill-opacity:1;fill-rule:nonzero;stroke:none" />
    <rect
       y="563.20001"
       x="286"
       height="4"
       width="8"
       id="rect5926"
       style="fill:#ffc12d;fill-opacity:1;fill-rule:nonzero;stroke:none" />
    <rect
       y="563.20001"
       x="286"
       height="4"
       width="8"
       id="rect5928"
       style="fill:#ffc12d;fill-opacity:1;fill-rule:nonzero;stroke:none" />
    <rect
       y="564.4903"
       x="273"
       height="1.4193549"
       width="11"
       id="rect5930"
       style="fill:#ffc12d;fill-opacity:1;fill-rule:nonzero;stroke:none" />
    <rect
       style="fill:#ffc12d;fill-opacity:1;fill-rule:nonzero;stroke:none"
       id="rect6245"
       width="4.1109128"
       height="4"
       x="317.46625"
       y="565.14453" />
    <rect
       style="fill:#ffc12d;fill-opacity:1;fill-rule:nonzero;stroke:none"
       id="rect6247"
       width="4.1109128"
       height="4"
       x="317.46625"
       y="565.14453" />
    <rect
       style="fill:#ffc12d;fill-opacity:1;fill-rule:nonzero;stroke:none"
       id="rect6249"
       width="4.1109128"
       height="4"
       x="317.46625"
       y="565.14453" />
    <rect
       style="fill:#ffc12d;fill-opacity:1;fill-rule:nonzero;stroke:none"
       id="rect6251"
       width="4.1109128"
       height="4"
       x="317.46625"
       y="565.14453" />
    <rect
       style="fill:#ffc12d;fill-opacity:1;fill-rule:nonzero;stroke:none"
       id="rect6253"
       width="4.1109128"
       height="4"
       x="317.46625"
       y="565.14453" />
    <rect
       style="fill:#ffc12d;fill-opacity:1;fill-rule:nonzero;stroke:none"
       id="rect6255"
       width="4.1109128"
       height="4"
       x="317.46625"
       y="565.14453" />
    <rect
       style="fill:#ffc12d;fill-opacity:1;fill-rule:nonzero;stroke:none"
       id="rect6257"
       width="4.1109128"
       height="4"
       x="317.46625"
       y="565.14453" />
    <rect
       style="fill:#ffc12d;fill-opacity:1;fill-rule:nonzero;stroke:none"
       id="rect6259"
       width="4.1109128"
       height="4"
       x="317.46625"
       y="565.14453" />
    <rect
       style="fill:#ffc12d;fill-opacity:1;fill-rule:nonzero;stroke:none"
       id="rect6261"
       width="4.1109128"
       height="4"
       x="317.46625"
       y="565.14453" />
    <rect
       style="fill:#ffc12d;fill-opacity:1;fill-rule:nonzero;stroke:none"
       id="rect6263"
       width="4.1109128"
       height="4"
       x="317.46625"
       y="565.14453" />
    <rect
       style="fill:#ffc12d;fill-opacity:1;fill-rule:nonzero;stroke:none"
       id="rect6265"
       width="4.1109128"
       height="4"
       x="317.46625"
       y="565.14453" />
    <rect
       style="fill:#ffc12d;fill-opacity:1;fill-rule:nonzero;stroke:none"
       id="rect6267"
       width="4.1109128"
       height="4"
       x="317.46625"
       y="565.14453" />
    <rect
       style="fill:#ffc12d;fill-opacity:1;fill-rule:nonzero;stroke:none"
       id="rect6269"
       width="4.1109128"
       height="4"
       x="317.46625"
       y="565.14453" />
    <rect
       style="fill:#ffc12d;fill-opacity:1;fill-rule:nonzero;stroke:none"
       id="rect6271"
       width="4.1109128"
       height="4"
       x="317.46625"
       y="565.14453" />
    <rect
       style="fill:#ffc12d;fill-opacity:1;fill-rule:nonzero;stroke:none"
       id="rect6273"
       width="4.1109128"
       height="4"
       x="317.46625"
       y="565.14453" />
    <rect
       style="fill:#ffc12d;fill-opacity:1;fill-rule:nonzero;stroke:none"
       id="rect6275"
       width="4.1109128"
       height="4"
       x="317.46625"
       y="565.14453" />
    <path
       style="fill:#ffc12d;fill-opacity:1;fill-rule:nonzero;stroke:none"
       d="m 247.15625,264.21875 -0.71875,1.40625 -1.25,-0.125 -0.375,4 4.125,0.40625 0.28125,-2.96875 0.65625,-1.28125 -2.71875,-1.4375 z m 7,3.03125 -3.21875,2.21875 2.15625,3.15625 3.21875,-2.21875 -2.15625,-3.15625 z m -10.3125,5.125 -3.6875,2.625 2.6875,3.78125 3.6875,-2.625 -2.6875,-3.78125 z m 17.75,2.34375 -1.625,3.46875 3.5625,1.65625 1.625,-3.46875 -3.5625,-1.65625 z m 9.59375,1.4375 -2.40625,4.5 4.375,2.34375 2.40625,-4.5 -4.375,-2.34375 z m -19,1.78125 -4.40625,1.71875 0.46875,1.15625 -0.125,0.0625 0.59375,1.15625 -0.40625,1.5 1.125,0.3125 0.0312,0.0937 0.125,-0.0625 0.0937,0.0312 0.78125,1.53125 1.65625,-0.84375 0.625,0.15625 0.15625,-0.5625 1.96875,-1.03125 0.1875,0.9375 3.25,-0.59375 0.9375,2.125 3.0625,-1.375 -1.40625,-3.15625 L 258.875,282 l -0.53125,-2.8125 -4.0625,0.75 0.40625,2.1875 -0.8125,-1.625 0.0312,-0.0937 -0.0937,-0.0312 -0.96875,-1.90625 -0.375,0.1875 -0.28125,-0.71875 z m 15.8125,4.78125 -0.125,3.21875 3.125,0.125 0.125,-3.1875 -3.125,-0.15625 z m -11.125,3.5 -1.1875,3.21875 3.3125,1.1875 1.15625,-3.1875 -3.28125,-1.21875 z m 13.25,0.0312 -4.0625,1.46875 1.5625,4.1875 1.25,-0.46875 0.75,2.375 3.40625,-1.0625 -1.0625,-3.28125 -0.59375,0.1875 -1.25,-3.40625 z m -9.15625,6.03125 -4.59375,1.84375 1.78125,4.46875 4.4375,-1.75 L 262.5,297 l 2.375,1.5 0.90625,-1.40625 0.875,0.125 0.53125,-3.6875 -3.5625,-0.5 -0.4375,2.90625 -0.46875,0.71875 -1.75,-4.375 z m 23.15625,2.34375 -0.5625,4.0625 3.9375,0.5625 0.59375,-4.09375 -3.96875,-0.53125 z m -13.3125,5.5 -0.0937,4.78125 4.90625,0.0937 0.0937,-4.78125 -4.90625,-0.0937 z m -15.15625,0.53125 -2.25,2.15625 2.21875,2.3125 2.25,-2.15625 -2.21875,-2.3125 z m 52.59375,10.3125 -3.28125,0.0937 0.0937,3.34375 3.28125,-0.0937 -0.0937,-3.34375 z m -22.28125,8.3125 -4.34375,1.7188 1.75,4.46875 4.34375,-1.6875 -1.75,-4.5 z m -6.3125,5.375 -0.3125,2.71875 2.78125,0.3125 0.3125,-2.71875 -2.78125,-0.3125 z m 5.25,2.59375 -4.34375,0.8125 0.8125,4.4375 4.34375,-0.78125 -0.8125,-4.46875 z M 309.875,345 l -0.96875,2.25 -0.40625,-0.0937 -0.6875,2.59375 0,0.0312 -0.28125,1.09375 3.625,0.9375 0.125,-0.53125 1.4375,0.625 2.0625,-4.78125 L 309.875,345 z m -72.40625,120.15625 0,4 4.09375,0 0,-4 -4.09375,0 z"
       id="rect6291"
       inkscape:connector-curvature="0" />
    <rect
       style="fill:#ffc12d;fill-opacity:1;fill-rule:nonzero;stroke:none"
       id="rect6277"
       width="4.1109128"
       height="4"
       x="317.46625"
       y="565.14453" />
    <rect
       style="fill:#ffc12d;fill-opacity:1;fill-rule:nonzero;stroke:none"
       id="rect6279"
       width="4.1109128"
       height="4"
       x="317.46625"
       y="565.14453" />
    <rect
       style="fill:#ffc12d;fill-opacity:1;fill-rule:nonzero;stroke:none"
       id="rect6281"
       width="4.1109128"
       height="4"
       x="317.46625"
       y="565.14453" />
    <rect
       style="fill:#ffc12d;fill-opacity:1;fill-rule:nonzero;stroke:none"
       id="rect6283"
       width="4.1109128"
       height="4"
       x="317.46625"
       y="565.14453" />
    <rect
       style="fill:#ffc12d;fill-opacity:1;fill-rule:nonzero;stroke:none"
       id="rect6285"
       width="4.1109128"
       height="4"
       x="317.46625"
       y="565.14453" />
    <rect
       style="fill:#ffc12d;fill-opacity:1;fill-rule:nonzero;stroke:none"
       id="rect6287"
       width="4.1109128"
       height="4"
       x="317.46625"
       y="565.14453" />
    <rect
       style="fill:#ffc12d;fill-opacity:1;fill-rule:nonzero;stroke:none"
       id="rect6289"
       width="4.1109128"
       height="4"
       x="317.46625"
       y="565.14453" />
    <path
       sodipodi:type="arc"
       style="fill:#ffffff;fill-opacity:1;fill-rule:nonzero;stroke:none"
       id="path5411"
       sodipodi:cx="370"
       sodipodi:cy="450.20001"
       sodipodi:rx="10"
       sodipodi:ry="10"
       d="m 380,450.20001 a 10,10 0 1 1 -20,0 10,10 0 1 1 20,0 z"
       transform="translate(-120,-180.00001)" />
    <path
       style="fill:#ffc12d;fill-opacity:1;fill-rule:nonzero;stroke:none"
       d="m 510.34375,400.125 -8.90625,2.875 0.34375,1.125 8.9375,-2.84375 -0.375,-1.15625 z m -72.21875,6.90625 -14.75,7.59375 0.96875,1.90625 14.75,-7.59375 -0.96875,-1.90625 z m -31.71875,24.40625 -1.34375,1.8125 6.15625,4.53125 -0.8125,1.84375 0.90625,0.40625 0.71875,-1.625 7.0625,5.1875 1.34375,-1.78125 -7.46875,-5.53125 1.46875,-3.28125 -0.90625,-0.40625 -1.375,3.09375 -5.75,-4.25 z m 97.90625,1.15625 -1.09375,0.65625 5.125,8.53125 1.09375,-0.65625 -5.125,-8.53125 z m 22.03125,1.5 -4.59375,3.03125 0.40625,0.59375 4.59375,-3.03125 -0.40625,-0.59375 z m -96.09375,2.8125 -0.625,0.90625 7.15625,4.96875 0.625,-0.90625 -7.15625,-4.96875 z m 56.4375,8.71875 -3.65625,3.46875 0.4375,0.46875 3.6875,-3.46875 -0.46875,-0.46875 z m -55.53125,9.3125 -11.8125,1.4375 0.1875,1.5 11.8125,-1.40625 -0.1875,-1.53125 z m 36.40625,3.1875 -1.125,0.5 3.9375,8.59375 1.09375,-0.5 -3.90625,-8.59375 z m 19.34375,3.25 -1.4375,0.21875 1.78125,11.03125 1.4375,-0.21875 -1.78125,-11.03125 z m -31.15625,3.28125 -0.71875,0.875 6.9375,5.53125 0.6875,-0.875 -6.90625,-5.53125 z m -38.4375,0.71875 -0.21875,1.5625 12.25,1.65625 0.21875,-1.59375 -12.25,-1.625 z M 357,466.5 l -2.0625,0.4375 3.46875,15.96875 2.0625,-0.4375 L 357,466.5 z m 156.90625,2.65625 -1.0625,0.90625 6.90625,8.25 1.0625,-0.90625 -6.90625,-8.25 z m -35.34375,2.90625 -7.34375,10.21875 1.3125,0.9375 L 479.875,473 l -1.3125,-0.9375 z m 71.3125,1.125 -0.0312,7.28125 0.9375,0 0.0312,-7.28125 -0.9375,0 z m -37.34375,1.21875 -0.9375,0.0937 0.71875,7.09375 0.9375,-0.0937 -0.71875,-7.09375 z m -64.65625,5.0625 -3.65625,3 0.40625,0.46875 3.65625,-3 -0.40625,-0.46875 z m 14.5625,10.34375 -6.15625,3.15625 0.375,0.78125 6.1875,-3.125 -0.40625,-0.8125 z m -49.34375,3.6875 -1.375,2.1875 -1.6875,-0.5 -0.3125,1 1.4375,0.4375 -5.0625,8.03125 1.4375,0.90625 5.3125,-8.4375 4.75,1.40625 0.3125,-1 -4.5,-1.34375 1.125,-1.78125 -1.4375,-0.90625 z m -7.21875,19.34375 -1,0.28125 2.21875,7.71875 1,-0.28125 -2.21875,-7.71875 z M 273,564.5 l 0,1.40625 11,0 0,-1.40625 -11,0 z"
       id="rect6501"
       inkscape:connector-curvature="0" />
  </g>
  <g
     inkscape:groupmode="layer"
     id="layer5"
     inkscape:label="paddles"
     style="display:inline"
     sodipodi:insensitive="true">
    <rect
       style="fill:#ffffff;fill-opacity:1;fill-rule:nonzero;stroke:none"
       id="rect5395"
       width="20"
       height="120"
       x="50"
       y="120.2"
       ry="0" />
    <rect
       ry="0"
       y="391.14377"
       x="486.57764"
       height="120"
       width="20"
       id="rect3172"
       style="fill:#ffffff;fill-opacity:1;fill-rule:nonzero;stroke:none"
       transform="matrix(0.96280969,-0.2701805,0.2701805,0.96280969,0,0)" />
  </g>
  <g
     inkscape:groupmode="layer"
     id="layer11"
     inkscape:label="walls"
     sodipodi:insensitive="true">
    <rect
       style="fill:#ffffff;fill-opacity:1;fill-rule:nonzero;stroke:none"
       id="rect6619"
       width="960"
       height="90"
       x="-80"
       y="-79.800003" />
    <rect
       y="470.20001"
       x="-80"
       height="89.999985"
       width="960"
       id="rect6621"
       style="fill:#ffffff;fill-opacity:1;fill-rule:nonzero;stroke:none" />
  </g>
  <g
     inkscape:groupmode="layer"
     id="layer12"
     inkscape:label="marks"
     style="display:inline">
    <path
       id="path6830"
       style="fill:none;stroke:#ffffff;stroke-width:1.99999964;stroke-linecap:butt;stroke-linejoin:miter;stroke-opacity:1;display:inline"
       d="m 399.99999,225.68821 0,29.02354 m -14.51177,-14.51178 29.02348,0"
       inkscape:connector-curvature="0" />
    <g
       id="g3186">
      <path
         inkscape:connector-curvature="0"
         id="path3174"
         d="m 200,0.2 0,230"
         style="fill:none;stroke:#ffffff;stroke-width:2;stroke-linecap:butt;stroke-linejoin:miter;stroke-miterlimit:4;stroke-opacity:1;stroke-dasharray:12, 12;stroke-dashoffset:6.6;display:inline"
         sodipodi:nodetypes="cc" />
      <path
         sodipodi:nodetypes="cc"
         style="fill:none;stroke:#ffffff;stroke-width:2;stroke-linecap:butt;stroke-linejoin:miter;stroke-miterlimit:4;stroke-opacity:1;stroke-dasharray:12, 12;stroke-dashoffset:6.6;display:inline"
         d="m 200,480.2 0,-230"
         id="path3176"
         inkscape:connector-curvature="0" />
      <path
         sodipodi:nodetypes="cc"
         id="path3178"
         style="fill:none;stroke:#ffffff;stroke-width:2;stroke-linecap:butt;stroke-linejoin:miter;stroke-opacity:1;display:inline"
         d="m 200,235.49332 0,9.41336"
         inkscape:connector-curvature="0" />
    </g>
    <g
       id="g3191"
       transform="translate(400,0)">
      <path
         sodipodi:nodetypes="cc"
         style="fill:none;stroke:#ffffff;stroke-width:2;stroke-linecap:butt;stroke-linejoin:miter;stroke-miterlimit:4;stroke-opacity:1;stroke-dasharray:12, 12;stroke-dashoffset:6.6;display:inline"
         d="m 200,0.2 0,230"
         id="path3193"
         inkscape:connector-curvature="0" />
      <path
         inkscape:connector-curvature="0"
         id="path3195"
         d="m 200,480.2 0,-230"
         style="fill:none;stroke:#ffffff;stroke-width:2;stroke-linecap:butt;stroke-linejoin:miter;stroke-miterlimit:4;stroke-opacity:1;stroke-dasharray:12, 12;stroke-dashoffset:6.6;display:inline"
         sodipodi:nodetypes="cc" />
      <path
         inkscape:connector-curvature="0"
         d="m 200,235.49332 0,9.41336"
         style="fill:none;stroke:#ffffff;stroke-width:2;stroke-linecap:butt;stroke-linejoin:miter;stroke-opacity:1;display:inline"
         id="path3197"
         sodipodi:nodetypes="cc" />
    </g>
    <g
       id="g3203"
       transform="matrix(0,1,-1,0,640.2,400.2)">
      <path
         inkscape:connector-curvature="0"
         id="path3206"
         d="m -160,230.2 0,-190"
         style="fill:none;stroke:#ffffff;stroke-width:2;stroke-linecap:butt;stroke-linejoin:miter;stroke-miterlimit:4;stroke-opacity:1;stroke-dasharray:12, 12;stroke-dashoffset:6.6;display:inline"
         sodipodi:nodetypes="cc" />
      <path
         sodipodi:nodetypes="cc"
         style="fill:none;stroke:#ffffff;stroke-width:2;stroke-linecap:butt;stroke-linejoin:miter;stroke-miterlimit:4;stroke-opacity:1;stroke-dasharray:12, 12;stroke-dashoffset:6.6;display:inline"
         d="m -160,250.2 0,190"
         id="path3208"
         inkscape:connector-curvature="0" />
    </g>
  </g>
  <g
     inkscape:groupmode="layer"
     id="layer6"
     inkscape:label="areas"
     style="opacity:0.25;display:none"
     sodipodi:insensitive="true">
    <rect
       style="fill:#00c4fd;fill-opacity:1;fill-rule:nonzero;stroke:none"
       id="rect5398"
       width="170"
       height="460"
       x="30"
       y="10.2" />
    <rect
       y="10.2"
       x="600"
       height="460"
       width="170"
       id="rect5400"
       style="fill:#00c4fd;fill-opacity:1;fill-rule:nonzero;stroke:none" />
    <rect
       style="fill:#fd6300;fill-opacity:1;fill-rule:nonzero;stroke:none"
       id="rect5402"
       width="240"
       height="960"
       x="280"
       y="-239.8" />
    <rect
       y="-10.2"
       x="0"
       height="50"
       width="800"
       id="rect5404"
       style="fill:#fd6300;fill-opacity:1;fill-rule:nonzero;stroke:none"
       transform="scale(1,-1)" />
    <rect
       transform="scale(1,-1)"
       style="fill:#fd6300;fill-opacity:1;fill-rule:nonzero;stroke:none"
       id="rect5406"
       width="800"
       height="50.000011"
       x="0"
       y="-520.20001" />
  </g>
  <g
     inkscape:groupmode="layer"
     id="layer9"
     inkscape:label="mask"
     sodipodi:insensitive="true"
     style="display:inline">
    <path
       style="fill:#000000;fill-opacity:1;fill-rule:nonzero;stroke:none"
       d="m -160,-159.8125 0,800 1120,0 0,-800 -1120,0 z m 160,160 800,0 0,480 -800,0 0,-480 z"
       id="rect6624"
       inkscape:connector-curvature="0" />
  </g>
  <g
     inkscape:groupmode="layer"
     id="layer13"
     inkscape:label="notes"
     style="display:none"
     sodipodi:insensitive="true">
    <text
       xml:space="preserve"
       style="font-size:40px;font-style:normal;font-weight:normal;line-height:125%;letter-spacing:0px;word-spacing:0px;fill:#ffffff;fill-opacity:1;stroke:none;display:inline;font-family:Yanone Kaffeesatz Bold;-inkscape-font-specification:Yanone Kaffeesatz Bold"
       x="847.28503"
       y="128.52679"
       id="text6869"
       sodipodi:linespacing="125%"><tspan
         sodipodi:role="line"
         id="tspan6871"
         x="847.28503"
         y="128.52679"
         style="font-size:24px;fill:#ffffff;fill-opacity:1">the ball trails particles as it moves</tspan><tspan
         sodipodi:role="line"
         x="847.28503"
         y="158.52679"
         style="font-size:24px;fill:#ffffff;fill-opacity:1"
         id="tspan6911">if the ball collides with any obstacles or paddles it makes them recoil</tspan><tspan
         sodipodi:role="line"
         x="847.28503"
         y="188.52679"
         style="font-size:24px;fill:#ffffff;fill-opacity:1"
         id="tspan6907">depending on how hard the ball collides with anything, the screen may shake, and spark effects are emitted</tspan><tspan
         sodipodi:role="line"
         x="847.28503"
         y="218.52679"
         style="font-size:24px;fill:#ffffff;fill-opacity:1"
         id="tspan6960">everything is physical, the ball will lose energy over time</tspan></text>
    <text
       sodipodi:linespacing="125%"
       id="text6913"
       y="268.52679"
       x="847.28503"
       style="font-size:40px;font-style:normal;font-weight:normal;line-height:125%;letter-spacing:0px;word-spacing:0px;fill:#ffffff;fill-opacity:1;stroke:none;display:inline;font-family:Yanone Kaffeesatz Bold;-inkscape-font-specification:Yanone Kaffeesatz Bold"
       xml:space="preserve"><tspan
         id="tspan6921"
         style="font-size:24px;fill:#ffffff;fill-opacity:1"
         y="268.52679"
         x="847.28503"
         sodipodi:role="line">the paddles are controlled with an elastic constraint</tspan><tspan
         style="font-size:24px;fill:#ffffff;fill-opacity:1"
         y="298.52679"
         x="847.28503"
         sodipodi:role="line"
         id="tspan6936">the players will freely move around the constraint's base, but the paddles will be restricted to the paddle area</tspan><tspan
         style="font-size:24px;fill:#ffffff;fill-opacity:1"
         y="328.52679"
         x="847.28503"
         sodipodi:role="line"
         id="tspan6932">the players can hit the ball extra hard with the vertical leeway the paddle area offers, strong hits will shake the screen even more</tspan><tspan
         style="font-size:24px;fill:#ffffff;fill-opacity:1"
         y="358.52679"
         x="847.28503"
         sodipodi:role="line"
         id="tspan6946">the paddles need to be able to rotate on their constraint as they're moved around, rotation can exceed paddle area</tspan><tspan
         style="font-size:24px;fill:#ffffff;fill-opacity:1"
         y="388.52679"
         x="847.28503"
         sodipodi:role="line"
         id="tspan6938">the paddles will elastically straighten themselves if they become rotated</tspan></text>
    <text
       sodipodi:linespacing="125%"
       id="text6966"
       y="448.52679"
       x="847.28503"
       style="font-size:40px;font-style:normal;font-weight:normal;line-height:125%;letter-spacing:0px;word-spacing:0px;fill:#ffffff;fill-opacity:1;stroke:none;display:inline;font-family:Yanone Kaffeesatz Bold;-inkscape-font-specification:Yanone Kaffeesatz Bold"
       xml:space="preserve"><tspan
         id="tspan6974"
         style="font-size:24px;fill:#ffffff;fill-opacity:1"
         y="448.52679"
         x="847.28503"
         sodipodi:role="line">a player can lose if either the ball goes outside the screen on their half,</tspan><tspan
         style="font-size:24px;fill:#ffffff;fill-opacity:1"
         y="478.52679"
         x="847.28503"
         sodipodi:role="line"
         id="tspan6985">or it loses energy and stops on their half</tspan></text>
    <text
       xml:space="preserve"
       style="font-size:40px;font-style:normal;font-weight:normal;line-height:125%;letter-spacing:0px;word-spacing:0px;fill:#ffffff;fill-opacity:1;stroke:none;display:inline;font-family:Yanone Kaffeesatz Bold;-inkscape-font-specification:Yanone Kaffeesatz Bold"
       x="847.28503"
       y="528.52679"
       id="text6987"
       sodipodi:linespacing="125%"><tspan
         id="tspan6991"
         sodipodi:role="line"
         x="847.28503"
         y="528.52679"
         style="font-size:24px;fill:#ffffff;fill-opacity:1">when a player loses their ball the score screen will show</tspan><tspan
         sodipodi:role="line"
         x="847.28503"
         y="558.52679"
         style="font-size:24px;fill:#ffffff;fill-opacity:1"
         id="tspan6995">the screen background will quickly slide in from the losing player's side</tspan><tspan
         sodipodi:role="line"
         x="847.28503"
         y="588.52679"
         style="font-size:24px;fill:#ffffff;fill-opacity:1"
         id="tspan6997">the score points will then be drawed as they were before the current loss</tspan><tspan
         sodipodi:role="line"
         x="847.28503"
         y="618.52679"
         style="font-size:24px;fill:#ffffff;fill-opacity:1"
         id="tspan6999">and then snappily the losing player's score will be changed</tspan><tspan
         sodipodi:role="line"
         x="847.28503"
         y="648.52679"
         style="font-size:24px;fill:#ffffff;fill-opacity:1"
         id="tspan7001" /><tspan
         sodipodi:role="line"
         x="847.28503"
         y="678.52679"
         style="font-size:24px;fill:#ffffff;fill-opacity:1"
         id="tspan7003" /></text>
    <text
       sodipodi:linespacing="125%"
       id="text7009"
       y="668.52679"
       x="847.28503"
       style="font-size:40px;font-style:normal;font-weight:normal;line-height:125%;letter-spacing:0px;word-spacing:0px;fill:#ffffff;fill-opacity:1;stroke:none;display:inline;font-family:Yanone Kaffeesatz Bold;-inkscape-font-specification:Yanone Kaffeesatz Bold"
       xml:space="preserve"><tspan
         style="font-size:24px;fill:#ffffff;fill-opacity:1"
         y="668.52679"
         x="847.28503"
         sodipodi:role="line"
         id="tspan7043">if no player loses,</tspan><tspan
         style="font-size:24px;fill:#ffffff;fill-opacity:1"
         y="698.52679"
         x="847.28503"
         sodipodi:role="line"
         id="tspan7047">    (obstacles will be deleted out of screen), </tspan><tspan
         style="font-size:24px;fill:#ffffff;fill-opacity:1"
         y="728.52679"
         x="847.28503"
         sodipodi:role="line"
         id="tspan7045">    and the screen backdrop will slide out on the player who will receive the ball</tspan><tspan
         style="font-size:24px;fill:#ffffff;fill-opacity:1"
         y="758.52679"
         x="847.28503"
         sodipodi:role="line"
         id="tspan7049">    a ball will spawn on the screen and be pushed on the receiving player's side</tspan></text>
    <text
       xml:space="preserve"
       style="font-size:40px;font-style:normal;font-weight:normal;line-height:125%;letter-spacing:0px;word-spacing:0px;fill:#ffffff;fill-opacity:1;stroke:none;display:inline;font-family:Yanone Kaffeesatz Bold;-inkscape-font-specification:Yanone Kaffeesatz Bold"
       x="847.28503"
       y="948.52679"
       id="text7051"
       sodipodi:linespacing="125%"><tspan
         id="tspan7055"
         sodipodi:role="line"
         x="847.28503"
         y="948.52679"
         style="font-size:24px;fill:#ffffff;fill-opacity:1">as the game progresses, obstacle shapes will be created in their region</tspan><tspan
         sodipodi:role="line"
         x="847.28503"
         y="978.52679"
         style="font-size:24px;fill:#ffffff;fill-opacity:1"
         id="tspan7059">they can animate any way they want, as long as they remain within their region</tspan><tspan
         sodipodi:role="line"
         x="847.28503"
         y="1008.5268"
         style="font-size:24px;fill:#ffffff;fill-opacity:1"
         id="tspan7061">the obstacles should never form a permanent wall on the screen, </tspan><tspan
         sodipodi:role="line"
         x="847.28503"
         y="1038.5269"
         style="font-size:24px;fill:#ffffff;fill-opacity:1"
         id="tspan7063">they should appear in groups and then not appear for a while again</tspan><tspan
         sodipodi:role="line"
         x="847.28503"
         y="1068.5269"
         style="font-size:24px;fill:#ffffff;fill-opacity:1"
         id="tspan7065">and they should always allow some gaps in their formation to pass the ball through</tspan></text>
    <text
       xml:space="preserve"
       style="font-size:40px;font-style:normal;font-weight:normal;line-height:125%;letter-spacing:0px;word-spacing:0px;fill:#ffffff;fill-opacity:1;stroke:none;display:inline;font-family:Yanone Kaffeesatz Bold;-inkscape-font-specification:Yanone Kaffeesatz Bold"
       x="847.28503"
       y="808.52679"
       id="text7092"
       sodipodi:linespacing="125%"><tspan
         id="tspan7100"
         sodipodi:role="line"
         x="847.28503"
         y="808.52679"
         style="font-size:24px;fill:#ffffff;fill-opacity:1">if a player runs out of points, they lose, </tspan><tspan
         sodipodi:role="line"
         x="847.28503"
         y="838.52679"
         style="font-size:24px;fill:#ffffff;fill-opacity:1"
         id="tspan7111">    that player's paddle and points and the ball is turned black,</tspan><tspan
         sodipodi:role="line"
         x="847.28503"
         y="868.52679"
         style="font-size:24px;fill:#ffffff;fill-opacity:1"
         id="tspan7115">    then the screen waits for confirmation</tspan><tspan
         sodipodi:role="line"
         x="847.28503"
         y="898.52679"
         style="font-size:24px;fill:#ffffff;fill-opacity:1"
         id="tspan3155">    upon which the black backdrop covers the screen and the menu shows up</tspan></text>
    <text
       sodipodi:linespacing="125%"
       id="text3157"
       y="-71.473206"
       x="847.28503"
       style="font-size:40px;font-style:normal;font-weight:normal;line-height:125%;letter-spacing:0px;word-spacing:0px;fill:#ffffff;fill-opacity:1;stroke:none;display:inline;font-family:Yanone Kaffeesatz Bold;-inkscape-font-specification:Yanone Kaffeesatz Bold"
       xml:space="preserve"><tspan
         id="tspan3165"
         style="font-size:24px;fill:#ffffff;fill-opacity:1"
         y="-71.473206"
         x="847.28503"
         sodipodi:role="line">the menu shows the empty play-field</tspan><tspan
         style="font-size:24px;fill:#ffffff;fill-opacity:1"
         y="-41.473206"
         x="847.28503"
         sodipodi:role="line"
         id="tspan3188">perhaps the empty paddle areas flash accent color after a while, as a hint of what to do</tspan><tspan
         style="font-size:24px;fill:#ffffff;fill-opacity:1"
         y="-11.473206"
         x="847.28503"
         sodipodi:role="line"
         id="tspan3178">when a player touches their side of the field a paddle is generated</tspan><tspan
         style="font-size:24px;fill:#ffffff;fill-opacity:1"
         y="18.526794"
         x="847.28503"
         sodipodi:role="line"
         id="tspan3182">when both oaddles have been generated, </tspan><tspan
         style="font-size:24px;fill:#ffffff;fill-opacity:1"
         y="48.526794"
         x="847.28503"
         sodipodi:role="line"
         id="tspan3184">    the game begins with a ball spawning in the center</tspan><tspan
         style="font-size:24px;fill:#ffffff;fill-opacity:1"
         y="78.526794"
         x="847.28503"
         sodipodi:role="line"
         id="tspan3186">     and randomly shooting out in one half</tspan></text>
    <text
       xml:space="preserve"
       style="font-size:40px;font-style:normal;font-weight:normal;line-height:125%;letter-spacing:0px;word-spacing:0px;fill:#ffffff;fill-opacity:1;stroke:none;display:inline;font-family:Yanone Kaffeesatz Bold;-inkscape-font-specification:Yanone Kaffeesatz Bold"
       x="-136.71497"
       y="14.526794"
       id="text3160"
       sodipodi:linespacing="125%"><tspan
         id="tspan3172"
         sodipodi:role="line"
         x="-136.71497"
         y="14.526794"
         style="font-size:24px;fill:#ffffff;fill-opacity:1">hello pong</tspan></text>
    <rect
       style="fill:#111111;fill-opacity:1;fill-rule:nonzero;stroke:none"
       id="rect3195"
       width="120"
       height="120"
       x="-160"
       y="40.200001"
       ry="2.1538463" />
    <rect
       ry="0.17948717"
       y="40.200001"
       x="-160"
       height="9.999999"
       width="120"
       id="rect3197"
       style="fill:#ffffff;fill-opacity:1;fill-rule:nonzero;stroke:none" />
    <rect
       style="fill:#ffffff;fill-opacity:1;fill-rule:nonzero;stroke:none"
       id="rect3199"
       width="120"
       height="9.999999"
       x="-160"
       y="150.2"
       ry="0.17948717" />
    <rect
       ry="1.0769231"
       y="70.199997"
       x="-150"
       height="60.000004"
       width="20"
       id="rect3201"
       style="fill:#ffffff;fill-opacity:1;fill-rule:nonzero;stroke:none" />
    <rect
       style="fill:#ffffff;fill-opacity:1;fill-rule:nonzero;stroke:none"
       id="rect3203"
       width="20"
       height="60.000004"
       x="-70"
       y="70.199997"
       ry="1.0769231" />
    <path
       sodipodi:type="arc"
       style="fill:#ffffff;fill-opacity:1;fill-rule:nonzero;stroke:none"
       id="path3205"
       sodipodi:cx="-100"
       sodipodi:cy="100.2"
       sodipodi:rx="10"
       sodipodi:ry="10"
       d="m -90,100.2 a 10,10 0 1 1 -20,0 10,10 0 1 1 20,0 z" />
    <path
       style="fill:none;stroke:#ffffff;stroke-width:2;stroke-linecap:butt;stroke-linejoin:miter;stroke-miterlimit:4;stroke-opacity:1;stroke-dasharray:6, 6;stroke-dashoffset:8.2"
       d="m -100,40.2 0,50.000001"
       id="path3207"
       inkscape:connector-curvature="0" />
    <path
       inkscape:connector-curvature="0"
       id="path3979"
       d="m -100,160.2 0,-50"
       style="fill:none;stroke:#ffffff;stroke-width:2;stroke-linecap:butt;stroke-linejoin:miter;stroke-miterlimit:4;stroke-opacity:1;stroke-dasharray:6, 6;stroke-dashoffset:8.2" />
  </g>
</svg>
